<mxfile host="app.diagrams.net" modified="2024-06-27T03:00:39.224Z" agent="Mozilla/5.0 (Windows NT 10.0; Win64; x64) AppleWebKit/537.36 (KHTML, like Gecko) Chrome/126.0.0.0 Safari/537.36" etag="WdO3RPo8TPKtkOw9WfYg" version="24.6.3" type="github">
  <diagram id="R2lEEEUBdFMjLlhIrx00" name="Page-1">
    <mxGraphModel dx="1050" dy="570" grid="1" gridSize="10" guides="1" tooltips="1" connect="1" arrows="1" fold="1" page="1" pageScale="1" pageWidth="850" pageHeight="1100" math="0" shadow="0" extFonts="Permanent Marker^https://fonts.googleapis.com/css?family=Permanent+Marker">
      <root>
        <mxCell id="0" />
        <mxCell id="1" parent="0" />
        <mxCell id="zulGVKWJKIj5W4bkiba--1" value="Student" style="rounded=1;arcSize=10;whiteSpace=wrap;html=1;align=center;" vertex="1" parent="1">
          <mxGeometry x="260" y="130" width="100" height="40" as="geometry" />
        </mxCell>
        <mxCell id="zulGVKWJKIj5W4bkiba--2" value="Teacher" style="rounded=1;arcSize=10;whiteSpace=wrap;html=1;align=center;" vertex="1" parent="1">
          <mxGeometry x="260" y="260" width="100" height="40" as="geometry" />
        </mxCell>
        <mxCell id="zulGVKWJKIj5W4bkiba--3" value="Subject" style="rounded=1;arcSize=10;whiteSpace=wrap;html=1;align=center;" vertex="1" parent="1">
          <mxGeometry x="490" y="130" width="100" height="40" as="geometry" />
        </mxCell>
        <mxCell id="zulGVKWJKIj5W4bkiba--4" value="ClassSchedule" style="rounded=1;arcSize=10;whiteSpace=wrap;html=1;align=center;" vertex="1" parent="1">
          <mxGeometry x="490" y="260" width="100" height="40" as="geometry" />
        </mxCell>
        <mxCell id="zulGVKWJKIj5W4bkiba--8" value="" style="fontSize=12;html=1;endArrow=ERmandOne;startArrow=ERmandOne;rounded=0;exitX=0.5;exitY=1;exitDx=0;exitDy=0;" edge="1" parent="1" source="zulGVKWJKIj5W4bkiba--1" target="zulGVKWJKIj5W4bkiba--2">
          <mxGeometry width="100" height="100" relative="1" as="geometry">
            <mxPoint x="560" y="230" as="sourcePoint" />
            <mxPoint x="660" y="130" as="targetPoint" />
          </mxGeometry>
        </mxCell>
        <mxCell id="zulGVKWJKIj5W4bkiba--9" value="advises" style="edgeLabel;html=1;align=center;verticalAlign=middle;resizable=0;points=[];" vertex="1" connectable="0" parent="zulGVKWJKIj5W4bkiba--8">
          <mxGeometry x="0.04" y="3" relative="1" as="geometry">
            <mxPoint as="offset" />
          </mxGeometry>
        </mxCell>
        <mxCell id="zulGVKWJKIj5W4bkiba--10" value="" style="fontSize=12;html=1;endArrow=ERoneToMany;rounded=0;exitX=0.5;exitY=1;exitDx=0;exitDy=0;" edge="1" parent="1" source="zulGVKWJKIj5W4bkiba--3" target="zulGVKWJKIj5W4bkiba--4">
          <mxGeometry width="100" height="100" relative="1" as="geometry">
            <mxPoint x="560" y="230" as="sourcePoint" />
            <mxPoint x="660" y="130" as="targetPoint" />
          </mxGeometry>
        </mxCell>
        <mxCell id="zulGVKWJKIj5W4bkiba--11" value="taught" style="edgeLabel;html=1;align=center;verticalAlign=middle;resizable=0;points=[];" vertex="1" connectable="0" parent="zulGVKWJKIj5W4bkiba--10">
          <mxGeometry x="-0.0711" y="1" relative="1" as="geometry">
            <mxPoint as="offset" />
          </mxGeometry>
        </mxCell>
        <mxCell id="zulGVKWJKIj5W4bkiba--12" value="" style="edgeStyle=orthogonalEdgeStyle;fontSize=12;html=1;endArrow=ERoneToMany;rounded=0;exitX=1;exitY=0.5;exitDx=0;exitDy=0;entryX=0.58;entryY=1.03;entryDx=0;entryDy=0;entryPerimeter=0;" edge="1" parent="1" source="zulGVKWJKIj5W4bkiba--1" target="zulGVKWJKIj5W4bkiba--4">
          <mxGeometry width="100" height="100" relative="1" as="geometry">
            <mxPoint x="560" y="230" as="sourcePoint" />
            <mxPoint x="660" y="130" as="targetPoint" />
            <Array as="points">
              <mxPoint x="420" y="150" />
              <mxPoint x="420" y="330" />
              <mxPoint x="548" y="330" />
            </Array>
          </mxGeometry>
        </mxCell>
        <mxCell id="zulGVKWJKIj5W4bkiba--13" value="belongs" style="edgeLabel;html=1;align=center;verticalAlign=middle;resizable=0;points=[];" vertex="1" connectable="0" parent="zulGVKWJKIj5W4bkiba--12">
          <mxGeometry x="-0.3772" y="-1" relative="1" as="geometry">
            <mxPoint as="offset" />
          </mxGeometry>
        </mxCell>
        <mxCell id="zulGVKWJKIj5W4bkiba--14" value="Student" style="shape=table;startSize=30;container=1;collapsible=1;childLayout=tableLayout;fixedRows=1;rowLines=0;fontStyle=1;align=center;resizeLast=1;html=1;" vertex="1" parent="1">
          <mxGeometry x="170" y="630" width="180" height="150" as="geometry" />
        </mxCell>
        <mxCell id="zulGVKWJKIj5W4bkiba--15" value="" style="shape=tableRow;horizontal=0;startSize=0;swimlaneHead=0;swimlaneBody=0;fillColor=none;collapsible=0;dropTarget=0;points=[[0,0.5],[1,0.5]];portConstraint=eastwest;top=0;left=0;right=0;bottom=1;" vertex="1" parent="zulGVKWJKIj5W4bkiba--14">
          <mxGeometry y="30" width="180" height="30" as="geometry" />
        </mxCell>
        <mxCell id="zulGVKWJKIj5W4bkiba--16" value="PK" style="shape=partialRectangle;connectable=0;fillColor=none;top=0;left=0;bottom=0;right=0;fontStyle=1;overflow=hidden;whiteSpace=wrap;html=1;" vertex="1" parent="zulGVKWJKIj5W4bkiba--15">
          <mxGeometry width="30" height="30" as="geometry">
            <mxRectangle width="30" height="30" as="alternateBounds" />
          </mxGeometry>
        </mxCell>
        <mxCell id="zulGVKWJKIj5W4bkiba--17" value="StudentId" style="shape=partialRectangle;connectable=0;fillColor=none;top=0;left=0;bottom=0;right=0;align=left;spacingLeft=6;fontStyle=5;overflow=hidden;whiteSpace=wrap;html=1;" vertex="1" parent="zulGVKWJKIj5W4bkiba--15">
          <mxGeometry x="30" width="150" height="30" as="geometry">
            <mxRectangle width="150" height="30" as="alternateBounds" />
          </mxGeometry>
        </mxCell>
        <mxCell id="zulGVKWJKIj5W4bkiba--18" value="" style="shape=tableRow;horizontal=0;startSize=0;swimlaneHead=0;swimlaneBody=0;fillColor=none;collapsible=0;dropTarget=0;points=[[0,0.5],[1,0.5]];portConstraint=eastwest;top=0;left=0;right=0;bottom=0;" vertex="1" parent="zulGVKWJKIj5W4bkiba--14">
          <mxGeometry y="60" width="180" height="30" as="geometry" />
        </mxCell>
        <mxCell id="zulGVKWJKIj5W4bkiba--19" value="" style="shape=partialRectangle;connectable=0;fillColor=none;top=0;left=0;bottom=0;right=0;editable=1;overflow=hidden;whiteSpace=wrap;html=1;" vertex="1" parent="zulGVKWJKIj5W4bkiba--18">
          <mxGeometry width="30" height="30" as="geometry">
            <mxRectangle width="30" height="30" as="alternateBounds" />
          </mxGeometry>
        </mxCell>
        <mxCell id="zulGVKWJKIj5W4bkiba--20" value="firstName" style="shape=partialRectangle;connectable=0;fillColor=none;top=0;left=0;bottom=0;right=0;align=left;spacingLeft=6;overflow=hidden;whiteSpace=wrap;html=1;" vertex="1" parent="zulGVKWJKIj5W4bkiba--18">
          <mxGeometry x="30" width="150" height="30" as="geometry">
            <mxRectangle width="150" height="30" as="alternateBounds" />
          </mxGeometry>
        </mxCell>
        <mxCell id="zulGVKWJKIj5W4bkiba--21" value="" style="shape=tableRow;horizontal=0;startSize=0;swimlaneHead=0;swimlaneBody=0;fillColor=none;collapsible=0;dropTarget=0;points=[[0,0.5],[1,0.5]];portConstraint=eastwest;top=0;left=0;right=0;bottom=0;" vertex="1" parent="zulGVKWJKIj5W4bkiba--14">
          <mxGeometry y="90" width="180" height="30" as="geometry" />
        </mxCell>
        <mxCell id="zulGVKWJKIj5W4bkiba--22" value="" style="shape=partialRectangle;connectable=0;fillColor=none;top=0;left=0;bottom=0;right=0;editable=1;overflow=hidden;whiteSpace=wrap;html=1;" vertex="1" parent="zulGVKWJKIj5W4bkiba--21">
          <mxGeometry width="30" height="30" as="geometry">
            <mxRectangle width="30" height="30" as="alternateBounds" />
          </mxGeometry>
        </mxCell>
        <mxCell id="zulGVKWJKIj5W4bkiba--23" value="lastName" style="shape=partialRectangle;connectable=0;fillColor=none;top=0;left=0;bottom=0;right=0;align=left;spacingLeft=6;overflow=hidden;whiteSpace=wrap;html=1;" vertex="1" parent="zulGVKWJKIj5W4bkiba--21">
          <mxGeometry x="30" width="150" height="30" as="geometry">
            <mxRectangle width="150" height="30" as="alternateBounds" />
          </mxGeometry>
        </mxCell>
        <mxCell id="zulGVKWJKIj5W4bkiba--24" value="" style="shape=tableRow;horizontal=0;startSize=0;swimlaneHead=0;swimlaneBody=0;fillColor=none;collapsible=0;dropTarget=0;points=[[0,0.5],[1,0.5]];portConstraint=eastwest;top=0;left=0;right=0;bottom=0;" vertex="1" parent="zulGVKWJKIj5W4bkiba--14">
          <mxGeometry y="120" width="180" height="30" as="geometry" />
        </mxCell>
        <mxCell id="zulGVKWJKIj5W4bkiba--25" value="FK" style="shape=partialRectangle;connectable=0;fillColor=none;top=0;left=0;bottom=0;right=0;editable=1;overflow=hidden;whiteSpace=wrap;html=1;" vertex="1" parent="zulGVKWJKIj5W4bkiba--24">
          <mxGeometry width="30" height="30" as="geometry">
            <mxRectangle width="30" height="30" as="alternateBounds" />
          </mxGeometry>
        </mxCell>
        <mxCell id="zulGVKWJKIj5W4bkiba--26" value="advisor" style="shape=partialRectangle;connectable=0;fillColor=none;top=0;left=0;bottom=0;right=0;align=left;spacingLeft=6;overflow=hidden;whiteSpace=wrap;html=1;" vertex="1" parent="zulGVKWJKIj5W4bkiba--24">
          <mxGeometry x="30" width="150" height="30" as="geometry">
            <mxRectangle width="150" height="30" as="alternateBounds" />
          </mxGeometry>
        </mxCell>
        <mxCell id="zulGVKWJKIj5W4bkiba--27" value="Subject" style="shape=table;startSize=30;container=1;collapsible=1;childLayout=tableLayout;fixedRows=1;rowLines=0;fontStyle=1;align=center;resizeLast=1;html=1;" vertex="1" parent="1">
          <mxGeometry x="540" y="690" width="180" height="90" as="geometry" />
        </mxCell>
        <mxCell id="zulGVKWJKIj5W4bkiba--28" value="" style="shape=tableRow;horizontal=0;startSize=0;swimlaneHead=0;swimlaneBody=0;fillColor=none;collapsible=0;dropTarget=0;points=[[0,0.5],[1,0.5]];portConstraint=eastwest;top=0;left=0;right=0;bottom=1;" vertex="1" parent="zulGVKWJKIj5W4bkiba--27">
          <mxGeometry y="30" width="180" height="30" as="geometry" />
        </mxCell>
        <mxCell id="zulGVKWJKIj5W4bkiba--29" value="PK" style="shape=partialRectangle;connectable=0;fillColor=none;top=0;left=0;bottom=0;right=0;fontStyle=1;overflow=hidden;whiteSpace=wrap;html=1;" vertex="1" parent="zulGVKWJKIj5W4bkiba--28">
          <mxGeometry width="30" height="30" as="geometry">
            <mxRectangle width="30" height="30" as="alternateBounds" />
          </mxGeometry>
        </mxCell>
        <mxCell id="zulGVKWJKIj5W4bkiba--30" value="SubjectId" style="shape=partialRectangle;connectable=0;fillColor=none;top=0;left=0;bottom=0;right=0;align=left;spacingLeft=6;fontStyle=5;overflow=hidden;whiteSpace=wrap;html=1;" vertex="1" parent="zulGVKWJKIj5W4bkiba--28">
          <mxGeometry x="30" width="150" height="30" as="geometry">
            <mxRectangle width="150" height="30" as="alternateBounds" />
          </mxGeometry>
        </mxCell>
        <mxCell id="zulGVKWJKIj5W4bkiba--31" value="" style="shape=tableRow;horizontal=0;startSize=0;swimlaneHead=0;swimlaneBody=0;fillColor=none;collapsible=0;dropTarget=0;points=[[0,0.5],[1,0.5]];portConstraint=eastwest;top=0;left=0;right=0;bottom=0;" vertex="1" parent="zulGVKWJKIj5W4bkiba--27">
          <mxGeometry y="60" width="180" height="30" as="geometry" />
        </mxCell>
        <mxCell id="zulGVKWJKIj5W4bkiba--32" value="" style="shape=partialRectangle;connectable=0;fillColor=none;top=0;left=0;bottom=0;right=0;editable=1;overflow=hidden;whiteSpace=wrap;html=1;" vertex="1" parent="zulGVKWJKIj5W4bkiba--31">
          <mxGeometry width="30" height="30" as="geometry">
            <mxRectangle width="30" height="30" as="alternateBounds" />
          </mxGeometry>
        </mxCell>
        <mxCell id="zulGVKWJKIj5W4bkiba--33" value="Name" style="shape=partialRectangle;connectable=0;fillColor=none;top=0;left=0;bottom=0;right=0;align=left;spacingLeft=6;overflow=hidden;whiteSpace=wrap;html=1;" vertex="1" parent="zulGVKWJKIj5W4bkiba--31">
          <mxGeometry x="30" width="150" height="30" as="geometry">
            <mxRectangle width="150" height="30" as="alternateBounds" />
          </mxGeometry>
        </mxCell>
        <mxCell id="zulGVKWJKIj5W4bkiba--41" value="Teacher" style="shape=table;startSize=30;container=1;collapsible=1;childLayout=tableLayout;fixedRows=1;rowLines=0;fontStyle=1;align=center;resizeLast=1;html=1;" vertex="1" parent="1">
          <mxGeometry x="170" y="900" width="180" height="120" as="geometry" />
        </mxCell>
        <mxCell id="zulGVKWJKIj5W4bkiba--42" value="" style="shape=tableRow;horizontal=0;startSize=0;swimlaneHead=0;swimlaneBody=0;fillColor=none;collapsible=0;dropTarget=0;points=[[0,0.5],[1,0.5]];portConstraint=eastwest;top=0;left=0;right=0;bottom=1;" vertex="1" parent="zulGVKWJKIj5W4bkiba--41">
          <mxGeometry y="30" width="180" height="30" as="geometry" />
        </mxCell>
        <mxCell id="zulGVKWJKIj5W4bkiba--43" value="PK" style="shape=partialRectangle;connectable=0;fillColor=none;top=0;left=0;bottom=0;right=0;fontStyle=1;overflow=hidden;whiteSpace=wrap;html=1;" vertex="1" parent="zulGVKWJKIj5W4bkiba--42">
          <mxGeometry width="30" height="30" as="geometry">
            <mxRectangle width="30" height="30" as="alternateBounds" />
          </mxGeometry>
        </mxCell>
        <mxCell id="zulGVKWJKIj5W4bkiba--44" value="TeacherId" style="shape=partialRectangle;connectable=0;fillColor=none;top=0;left=0;bottom=0;right=0;align=left;spacingLeft=6;fontStyle=5;overflow=hidden;whiteSpace=wrap;html=1;" vertex="1" parent="zulGVKWJKIj5W4bkiba--42">
          <mxGeometry x="30" width="150" height="30" as="geometry">
            <mxRectangle width="150" height="30" as="alternateBounds" />
          </mxGeometry>
        </mxCell>
        <mxCell id="zulGVKWJKIj5W4bkiba--45" value="" style="shape=tableRow;horizontal=0;startSize=0;swimlaneHead=0;swimlaneBody=0;fillColor=none;collapsible=0;dropTarget=0;points=[[0,0.5],[1,0.5]];portConstraint=eastwest;top=0;left=0;right=0;bottom=0;" vertex="1" parent="zulGVKWJKIj5W4bkiba--41">
          <mxGeometry y="60" width="180" height="30" as="geometry" />
        </mxCell>
        <mxCell id="zulGVKWJKIj5W4bkiba--46" value="" style="shape=partialRectangle;connectable=0;fillColor=none;top=0;left=0;bottom=0;right=0;editable=1;overflow=hidden;whiteSpace=wrap;html=1;" vertex="1" parent="zulGVKWJKIj5W4bkiba--45">
          <mxGeometry width="30" height="30" as="geometry">
            <mxRectangle width="30" height="30" as="alternateBounds" />
          </mxGeometry>
        </mxCell>
        <mxCell id="zulGVKWJKIj5W4bkiba--47" value="firstName" style="shape=partialRectangle;connectable=0;fillColor=none;top=0;left=0;bottom=0;right=0;align=left;spacingLeft=6;overflow=hidden;whiteSpace=wrap;html=1;" vertex="1" parent="zulGVKWJKIj5W4bkiba--45">
          <mxGeometry x="30" width="150" height="30" as="geometry">
            <mxRectangle width="150" height="30" as="alternateBounds" />
          </mxGeometry>
        </mxCell>
        <mxCell id="zulGVKWJKIj5W4bkiba--48" value="" style="shape=tableRow;horizontal=0;startSize=0;swimlaneHead=0;swimlaneBody=0;fillColor=none;collapsible=0;dropTarget=0;points=[[0,0.5],[1,0.5]];portConstraint=eastwest;top=0;left=0;right=0;bottom=0;" vertex="1" parent="zulGVKWJKIj5W4bkiba--41">
          <mxGeometry y="90" width="180" height="30" as="geometry" />
        </mxCell>
        <mxCell id="zulGVKWJKIj5W4bkiba--49" value="" style="shape=partialRectangle;connectable=0;fillColor=none;top=0;left=0;bottom=0;right=0;editable=1;overflow=hidden;whiteSpace=wrap;html=1;" vertex="1" parent="zulGVKWJKIj5W4bkiba--48">
          <mxGeometry width="30" height="30" as="geometry">
            <mxRectangle width="30" height="30" as="alternateBounds" />
          </mxGeometry>
        </mxCell>
        <mxCell id="zulGVKWJKIj5W4bkiba--50" value="lastName" style="shape=partialRectangle;connectable=0;fillColor=none;top=0;left=0;bottom=0;right=0;align=left;spacingLeft=6;overflow=hidden;whiteSpace=wrap;html=1;" vertex="1" parent="zulGVKWJKIj5W4bkiba--48">
          <mxGeometry x="30" width="150" height="30" as="geometry">
            <mxRectangle width="150" height="30" as="alternateBounds" />
          </mxGeometry>
        </mxCell>
        <mxCell id="zulGVKWJKIj5W4bkiba--54" value="ClassSchedule" style="shape=table;startSize=30;container=1;collapsible=1;childLayout=tableLayout;fixedRows=1;rowLines=0;fontStyle=1;align=center;resizeLast=1;html=1;whiteSpace=wrap;" vertex="1" parent="1">
          <mxGeometry x="535" y="910" width="180" height="120" as="geometry" />
        </mxCell>
        <mxCell id="zulGVKWJKIj5W4bkiba--55" value="" style="shape=tableRow;horizontal=0;startSize=0;swimlaneHead=0;swimlaneBody=0;fillColor=none;collapsible=0;dropTarget=0;points=[[0,0.5],[1,0.5]];portConstraint=eastwest;top=0;left=0;right=0;bottom=0;html=1;" vertex="1" parent="zulGVKWJKIj5W4bkiba--54">
          <mxGeometry y="30" width="180" height="30" as="geometry" />
        </mxCell>
        <mxCell id="zulGVKWJKIj5W4bkiba--56" value="PK,FK1" style="shape=partialRectangle;connectable=0;fillColor=none;top=0;left=0;bottom=0;right=0;fontStyle=1;overflow=hidden;html=1;whiteSpace=wrap;" vertex="1" parent="zulGVKWJKIj5W4bkiba--55">
          <mxGeometry width="60" height="30" as="geometry">
            <mxRectangle width="60" height="30" as="alternateBounds" />
          </mxGeometry>
        </mxCell>
        <mxCell id="zulGVKWJKIj5W4bkiba--57" value="StudentId" style="shape=partialRectangle;connectable=0;fillColor=none;top=0;left=0;bottom=0;right=0;align=left;spacingLeft=6;fontStyle=5;overflow=hidden;html=1;whiteSpace=wrap;" vertex="1" parent="zulGVKWJKIj5W4bkiba--55">
          <mxGeometry x="60" width="120" height="30" as="geometry">
            <mxRectangle width="120" height="30" as="alternateBounds" />
          </mxGeometry>
        </mxCell>
        <mxCell id="zulGVKWJKIj5W4bkiba--58" value="" style="shape=tableRow;horizontal=0;startSize=0;swimlaneHead=0;swimlaneBody=0;fillColor=none;collapsible=0;dropTarget=0;points=[[0,0.5],[1,0.5]];portConstraint=eastwest;top=0;left=0;right=0;bottom=1;html=1;" vertex="1" parent="zulGVKWJKIj5W4bkiba--54">
          <mxGeometry y="60" width="180" height="30" as="geometry" />
        </mxCell>
        <mxCell id="zulGVKWJKIj5W4bkiba--59" value="PK,FK2" style="shape=partialRectangle;connectable=0;fillColor=none;top=0;left=0;bottom=0;right=0;fontStyle=1;overflow=hidden;html=1;whiteSpace=wrap;" vertex="1" parent="zulGVKWJKIj5W4bkiba--58">
          <mxGeometry width="60" height="30" as="geometry">
            <mxRectangle width="60" height="30" as="alternateBounds" />
          </mxGeometry>
        </mxCell>
        <mxCell id="zulGVKWJKIj5W4bkiba--60" value="SubjectId" style="shape=partialRectangle;connectable=0;fillColor=none;top=0;left=0;bottom=0;right=0;align=left;spacingLeft=6;fontStyle=5;overflow=hidden;html=1;whiteSpace=wrap;" vertex="1" parent="zulGVKWJKIj5W4bkiba--58">
          <mxGeometry x="60" width="120" height="30" as="geometry">
            <mxRectangle width="120" height="30" as="alternateBounds" />
          </mxGeometry>
        </mxCell>
        <mxCell id="zulGVKWJKIj5W4bkiba--61" value="" style="shape=tableRow;horizontal=0;startSize=0;swimlaneHead=0;swimlaneBody=0;fillColor=none;collapsible=0;dropTarget=0;points=[[0,0.5],[1,0.5]];portConstraint=eastwest;top=0;left=0;right=0;bottom=0;html=1;" vertex="1" parent="zulGVKWJKIj5W4bkiba--54">
          <mxGeometry y="90" width="180" height="30" as="geometry" />
        </mxCell>
        <mxCell id="zulGVKWJKIj5W4bkiba--62" value="" style="shape=partialRectangle;connectable=0;fillColor=none;top=0;left=0;bottom=0;right=0;editable=1;overflow=hidden;html=1;whiteSpace=wrap;" vertex="1" parent="zulGVKWJKIj5W4bkiba--61">
          <mxGeometry width="60" height="30" as="geometry">
            <mxRectangle width="60" height="30" as="alternateBounds" />
          </mxGeometry>
        </mxCell>
        <mxCell id="zulGVKWJKIj5W4bkiba--63" value="ClassPeriod" style="shape=partialRectangle;connectable=0;fillColor=none;top=0;left=0;bottom=0;right=0;align=left;spacingLeft=6;overflow=hidden;html=1;whiteSpace=wrap;" vertex="1" parent="zulGVKWJKIj5W4bkiba--61">
          <mxGeometry x="60" width="120" height="30" as="geometry">
            <mxRectangle width="120" height="30" as="alternateBounds" />
          </mxGeometry>
        </mxCell>
        <mxCell id="zulGVKWJKIj5W4bkiba--67" value="" style="fontSize=12;html=1;endArrow=ERmandOne;startArrow=ERmandOne;rounded=0;exitX=0.5;exitY=1;exitDx=0;exitDy=0;entryX=0.5;entryY=0;entryDx=0;entryDy=0;" edge="1" parent="1" target="zulGVKWJKIj5W4bkiba--41">
          <mxGeometry width="100" height="100" relative="1" as="geometry">
            <mxPoint x="259.5" y="780" as="sourcePoint" />
            <mxPoint x="259.5" y="870" as="targetPoint" />
          </mxGeometry>
        </mxCell>
        <mxCell id="zulGVKWJKIj5W4bkiba--68" value="advises" style="edgeLabel;html=1;align=center;verticalAlign=middle;resizable=0;points=[];" vertex="1" connectable="0" parent="zulGVKWJKIj5W4bkiba--67">
          <mxGeometry x="0.04" y="3" relative="1" as="geometry">
            <mxPoint as="offset" />
          </mxGeometry>
        </mxCell>
        <mxCell id="zulGVKWJKIj5W4bkiba--69" value="" style="fontSize=12;html=1;endArrow=ERoneToMany;rounded=0;entryX=0.539;entryY=0.013;entryDx=0;entryDy=0;entryPerimeter=0;" edge="1" parent="1" target="zulGVKWJKIj5W4bkiba--54">
          <mxGeometry width="100" height="100" relative="1" as="geometry">
            <mxPoint x="630" y="785" as="sourcePoint" />
            <mxPoint x="630" y="900" as="targetPoint" />
          </mxGeometry>
        </mxCell>
        <mxCell id="zulGVKWJKIj5W4bkiba--70" value="taught" style="edgeLabel;html=1;align=center;verticalAlign=middle;resizable=0;points=[];" vertex="1" connectable="0" parent="zulGVKWJKIj5W4bkiba--69">
          <mxGeometry x="-0.0711" y="1" relative="1" as="geometry">
            <mxPoint as="offset" />
          </mxGeometry>
        </mxCell>
        <mxCell id="zulGVKWJKIj5W4bkiba--71" value="" style="edgeStyle=orthogonalEdgeStyle;fontSize=12;html=1;endArrow=ERoneToMany;rounded=0;exitX=1.002;exitY=-0.06;exitDx=0;exitDy=0;entryX=0.548;entryY=1.16;entryDx=0;entryDy=0;entryPerimeter=0;exitPerimeter=0;" edge="1" parent="1" source="zulGVKWJKIj5W4bkiba--21">
          <mxGeometry width="100" height="100" relative="1" as="geometry">
            <mxPoint x="260" y="625.2" as="sourcePoint" />
            <mxPoint x="633.6400000000001" y="1030" as="targetPoint" />
            <Array as="points">
              <mxPoint x="460" y="718" />
              <mxPoint x="460" y="1070" />
              <mxPoint x="634" y="1070" />
            </Array>
          </mxGeometry>
        </mxCell>
        <mxCell id="zulGVKWJKIj5W4bkiba--72" value="belongs" style="edgeLabel;html=1;align=center;verticalAlign=middle;resizable=0;points=[];" vertex="1" connectable="0" parent="zulGVKWJKIj5W4bkiba--71">
          <mxGeometry x="-0.3772" y="-1" relative="1" as="geometry">
            <mxPoint as="offset" />
          </mxGeometry>
        </mxCell>
        <mxCell id="zulGVKWJKIj5W4bkiba--74" value="SubjectEnrolled" style="rounded=1;arcSize=10;whiteSpace=wrap;html=1;align=center;" vertex="1" parent="1">
          <mxGeometry x="370" y="30" width="100" height="40" as="geometry" />
        </mxCell>
        <mxCell id="zulGVKWJKIj5W4bkiba--75" value="" style="edgeStyle=orthogonalEdgeStyle;fontSize=12;html=1;endArrow=ERoneToMany;rounded=0;exitX=0.5;exitY=0;exitDx=0;exitDy=0;entryX=0;entryY=0.5;entryDx=0;entryDy=0;" edge="1" parent="1" source="zulGVKWJKIj5W4bkiba--1" target="zulGVKWJKIj5W4bkiba--74">
          <mxGeometry width="100" height="100" relative="1" as="geometry">
            <mxPoint x="230" y="110" as="sourcePoint" />
            <mxPoint x="330" y="10" as="targetPoint" />
          </mxGeometry>
        </mxCell>
        <mxCell id="zulGVKWJKIj5W4bkiba--77" value="Enrolled" style="edgeLabel;html=1;align=center;verticalAlign=middle;resizable=0;points=[];" vertex="1" connectable="0" parent="zulGVKWJKIj5W4bkiba--75">
          <mxGeometry x="-0.5429" y="2" relative="1" as="geometry">
            <mxPoint as="offset" />
          </mxGeometry>
        </mxCell>
        <mxCell id="zulGVKWJKIj5W4bkiba--76" value="" style="edgeStyle=orthogonalEdgeStyle;fontSize=12;html=1;endArrow=ERoneToMany;rounded=0;exitX=0.5;exitY=0;exitDx=0;exitDy=0;entryX=1;entryY=0.5;entryDx=0;entryDy=0;" edge="1" parent="1" source="zulGVKWJKIj5W4bkiba--3" target="zulGVKWJKIj5W4bkiba--74">
          <mxGeometry width="100" height="100" relative="1" as="geometry">
            <mxPoint x="480" y="110" as="sourcePoint" />
            <mxPoint x="580" y="10" as="targetPoint" />
            <Array as="points">
              <mxPoint x="540" y="50" />
            </Array>
          </mxGeometry>
        </mxCell>
        <mxCell id="zulGVKWJKIj5W4bkiba--80" value="contains" style="edgeLabel;html=1;align=center;verticalAlign=middle;resizable=0;points=[];" vertex="1" connectable="0" parent="zulGVKWJKIj5W4bkiba--76">
          <mxGeometry x="-0.52" y="1" relative="1" as="geometry">
            <mxPoint as="offset" />
          </mxGeometry>
        </mxCell>
        <mxCell id="zulGVKWJKIj5W4bkiba--94" value="SubjectEnrolled" style="shape=table;startSize=30;container=1;collapsible=1;childLayout=tableLayout;fixedRows=1;rowLines=0;fontStyle=1;align=center;resizeLast=1;html=1;whiteSpace=wrap;" vertex="1" parent="1">
          <mxGeometry x="370" y="430" width="180" height="120" as="geometry" />
        </mxCell>
        <mxCell id="zulGVKWJKIj5W4bkiba--95" value="" style="shape=tableRow;horizontal=0;startSize=0;swimlaneHead=0;swimlaneBody=0;fillColor=none;collapsible=0;dropTarget=0;points=[[0,0.5],[1,0.5]];portConstraint=eastwest;top=0;left=0;right=0;bottom=0;html=1;" vertex="1" parent="zulGVKWJKIj5W4bkiba--94">
          <mxGeometry y="30" width="180" height="30" as="geometry" />
        </mxCell>
        <mxCell id="zulGVKWJKIj5W4bkiba--96" value="PK,FK1" style="shape=partialRectangle;connectable=0;fillColor=none;top=0;left=0;bottom=0;right=0;fontStyle=1;overflow=hidden;html=1;whiteSpace=wrap;" vertex="1" parent="zulGVKWJKIj5W4bkiba--95">
          <mxGeometry width="60" height="30" as="geometry">
            <mxRectangle width="60" height="30" as="alternateBounds" />
          </mxGeometry>
        </mxCell>
        <mxCell id="zulGVKWJKIj5W4bkiba--97" value="StudentId" style="shape=partialRectangle;connectable=0;fillColor=none;top=0;left=0;bottom=0;right=0;align=left;spacingLeft=6;fontStyle=5;overflow=hidden;html=1;whiteSpace=wrap;" vertex="1" parent="zulGVKWJKIj5W4bkiba--95">
          <mxGeometry x="60" width="120" height="30" as="geometry">
            <mxRectangle width="120" height="30" as="alternateBounds" />
          </mxGeometry>
        </mxCell>
        <mxCell id="zulGVKWJKIj5W4bkiba--98" value="" style="shape=tableRow;horizontal=0;startSize=0;swimlaneHead=0;swimlaneBody=0;fillColor=none;collapsible=0;dropTarget=0;points=[[0,0.5],[1,0.5]];portConstraint=eastwest;top=0;left=0;right=0;bottom=1;html=1;" vertex="1" parent="zulGVKWJKIj5W4bkiba--94">
          <mxGeometry y="60" width="180" height="30" as="geometry" />
        </mxCell>
        <mxCell id="zulGVKWJKIj5W4bkiba--99" value="PK,FK2" style="shape=partialRectangle;connectable=0;fillColor=none;top=0;left=0;bottom=0;right=0;fontStyle=1;overflow=hidden;html=1;whiteSpace=wrap;" vertex="1" parent="zulGVKWJKIj5W4bkiba--98">
          <mxGeometry width="60" height="30" as="geometry">
            <mxRectangle width="60" height="30" as="alternateBounds" />
          </mxGeometry>
        </mxCell>
        <mxCell id="zulGVKWJKIj5W4bkiba--100" value="SubjectId" style="shape=partialRectangle;connectable=0;fillColor=none;top=0;left=0;bottom=0;right=0;align=left;spacingLeft=6;fontStyle=5;overflow=hidden;html=1;whiteSpace=wrap;" vertex="1" parent="zulGVKWJKIj5W4bkiba--98">
          <mxGeometry x="60" width="120" height="30" as="geometry">
            <mxRectangle width="120" height="30" as="alternateBounds" />
          </mxGeometry>
        </mxCell>
        <mxCell id="zulGVKWJKIj5W4bkiba--101" value="" style="shape=tableRow;horizontal=0;startSize=0;swimlaneHead=0;swimlaneBody=0;fillColor=none;collapsible=0;dropTarget=0;points=[[0,0.5],[1,0.5]];portConstraint=eastwest;top=0;left=0;right=0;bottom=0;html=1;" vertex="1" parent="zulGVKWJKIj5W4bkiba--94">
          <mxGeometry y="90" width="180" height="30" as="geometry" />
        </mxCell>
        <mxCell id="zulGVKWJKIj5W4bkiba--102" value="" style="shape=partialRectangle;connectable=0;fillColor=none;top=0;left=0;bottom=0;right=0;editable=1;overflow=hidden;html=1;whiteSpace=wrap;" vertex="1" parent="zulGVKWJKIj5W4bkiba--101">
          <mxGeometry width="60" height="30" as="geometry">
            <mxRectangle width="60" height="30" as="alternateBounds" />
          </mxGeometry>
        </mxCell>
        <mxCell id="zulGVKWJKIj5W4bkiba--103" value="enrollmentDate" style="shape=partialRectangle;connectable=0;fillColor=none;top=0;left=0;bottom=0;right=0;align=left;spacingLeft=6;overflow=hidden;html=1;whiteSpace=wrap;" vertex="1" parent="zulGVKWJKIj5W4bkiba--101">
          <mxGeometry x="60" width="120" height="30" as="geometry">
            <mxRectangle width="120" height="30" as="alternateBounds" />
          </mxGeometry>
        </mxCell>
        <mxCell id="zulGVKWJKIj5W4bkiba--111" value="" style="edgeStyle=orthogonalEdgeStyle;fontSize=12;html=1;endArrow=ERoneToMany;rounded=0;exitX=0.5;exitY=0;exitDx=0;exitDy=0;entryX=0;entryY=0.5;entryDx=0;entryDy=0;" edge="1" parent="1" source="zulGVKWJKIj5W4bkiba--14" target="zulGVKWJKIj5W4bkiba--98">
          <mxGeometry width="100" height="100" relative="1" as="geometry">
            <mxPoint x="370" y="650" as="sourcePoint" />
            <mxPoint x="470" y="550" as="targetPoint" />
          </mxGeometry>
        </mxCell>
        <mxCell id="zulGVKWJKIj5W4bkiba--112" value="enrolled" style="edgeLabel;html=1;align=center;verticalAlign=middle;resizable=0;points=[];" vertex="1" connectable="0" parent="zulGVKWJKIj5W4bkiba--111">
          <mxGeometry x="-0.0894" y="-2" relative="1" as="geometry">
            <mxPoint as="offset" />
          </mxGeometry>
        </mxCell>
        <mxCell id="zulGVKWJKIj5W4bkiba--113" value="" style="edgeStyle=orthogonalEdgeStyle;fontSize=12;html=1;endArrow=ERoneToMany;rounded=0;exitX=0.5;exitY=0;exitDx=0;exitDy=0;entryX=1.018;entryY=0.213;entryDx=0;entryDy=0;entryPerimeter=0;" edge="1" parent="1" source="zulGVKWJKIj5W4bkiba--27" target="zulGVKWJKIj5W4bkiba--98">
          <mxGeometry width="100" height="100" relative="1" as="geometry">
            <mxPoint x="370" y="550" as="sourcePoint" />
            <mxPoint x="470" y="450" as="targetPoint" />
          </mxGeometry>
        </mxCell>
        <mxCell id="zulGVKWJKIj5W4bkiba--114" value="contains" style="edgeLabel;html=1;align=center;verticalAlign=middle;resizable=0;points=[];" vertex="1" connectable="0" parent="zulGVKWJKIj5W4bkiba--113">
          <mxGeometry x="-0.2676" y="-1" relative="1" as="geometry">
            <mxPoint as="offset" />
          </mxGeometry>
        </mxCell>
      </root>
    </mxGraphModel>
  </diagram>
</mxfile>
